<svg width="11" height="11" viewBox="0 0 11 11" fill="none" xmlns="http://www.w3.org/2000/svg">
<path d="M5.5 2.80469C4 2.80469 2.80469 4.02344 2.80469 5.5C2.80469 7 4 8.19531 5.5 8.19531C6.97656 8.19531 8.19531 7 8.19531 5.5C8.19531 4.02344 6.97656 2.80469 5.5 2.80469ZM5.5 7.25781C4.53906 7.25781 3.74219 6.48438 3.74219 5.5C3.74219 4.53906 4.51562 3.76562 5.5 3.76562C6.46094 3.76562 7.23438 4.53906 7.23438 5.5C7.23438 6.48438 6.46094 7.25781 5.5 7.25781ZM8.92188 2.71094C8.92188 2.35938 8.64062 2.07812 8.28906 2.07812C7.9375 2.07812 7.65625 2.35938 7.65625 2.71094C7.65625 3.0625 7.9375 3.34375 8.28906 3.34375C8.64062 3.34375 8.92188 3.0625 8.92188 2.71094ZM10.7031 3.34375C10.6562 2.5 10.4688 1.75 9.85938 1.14062C9.25 0.53125 8.5 0.34375 7.65625 0.296875C6.78906 0.25 4.1875 0.25 3.32031 0.296875C2.47656 0.34375 1.75 0.53125 1.11719 1.14062C0.507812 1.75 0.320312 2.5 0.273438 3.34375C0.226562 4.21094 0.226562 6.8125 0.273438 7.67969C0.320312 8.52344 0.507812 9.25 1.11719 9.88281C1.75 10.4922 2.47656 10.6797 3.32031 10.7266C4.1875 10.7734 6.78906 10.7734 7.65625 10.7266C8.5 10.6797 9.25 10.4922 9.85938 9.88281C10.4688 9.25 10.6562 8.52344 10.7031 7.67969C10.75 6.8125 10.75 4.21094 10.7031 3.34375ZM9.57812 8.59375C9.41406 9.0625 9.03906 9.41406 8.59375 9.60156C7.89062 9.88281 6.25 9.8125 5.5 9.8125C4.72656 9.8125 3.08594 9.88281 2.40625 9.60156C1.9375 9.41406 1.58594 9.0625 1.39844 8.59375C1.11719 7.91406 1.1875 6.27344 1.1875 5.5C1.1875 4.75 1.11719 3.10938 1.39844 2.40625C1.58594 1.96094 1.9375 1.60938 2.40625 1.42188C3.08594 1.14062 4.72656 1.21094 5.5 1.21094C6.25 1.21094 7.89062 1.14062 8.59375 1.42188C9.03906 1.58594 9.39062 1.96094 9.57812 2.40625C9.85938 3.10938 9.78906 4.75 9.78906 5.5C9.78906 6.27344 9.85938 7.91406 9.57812 8.59375Z" fill="black"/>
</svg>
