<svg width="11" height="11" fill="none" xmlns="http://www.w3.org/2000/svg"><path d="M5.5 2.805A2.696 2.696 0 0 0 2.805 5.5 2.68 2.68 0 0 0 5.5 8.195 2.696 2.696 0 0 0 8.195 5.5 2.71 2.71 0 0 0 5.5 2.805zm0 4.453c-.96 0-1.758-.774-1.758-1.758 0-.96.774-1.734 1.758-1.734.96 0 1.734.773 1.734 1.734 0 .984-.773 1.758-1.734 1.758zM8.922 2.71a.63.63 0 0 0-.633-.633.63.63 0 0 0-.633.633.63.63 0 0 0 .633.633.63.63 0 0 0 .633-.633zm1.781.633C10.656 2.5 10.47 1.75 9.86 1.14 9.25.53 8.5.344 7.656.297 6.79.25 4.188.25 3.32.297c-.843.047-1.57.234-2.203.844C.507 1.75.32 2.5.273 3.344c-.046.867-.046 3.469 0 4.336.047.843.235 1.57.844 2.203.633.61 1.36.797 2.203.844.868.046 3.47.046 4.336 0 .844-.047 1.594-.235 2.203-.844.61-.633.797-1.36.844-2.203.047-.867.047-3.47 0-4.336zm-1.125 5.25c-.164.469-.539.82-.984 1.008-.703.28-2.344.21-3.094.21-.773 0-2.414.07-3.094-.21a1.777 1.777 0 0 1-1.008-1.008c-.28-.68-.21-2.32-.21-3.094 0-.75-.07-2.39.21-3.094a1.81 1.81 0 0 1 1.008-.984c.68-.281 2.32-.211 3.094-.211.75 0 2.39-.07 3.094.21.445.165.797.54.984.985.281.703.211 2.344.211 3.094 0 .773.07 2.414-.21 3.094z" fill="#000"/></svg>