<svg width="12" height="11" fill="none" xmlns="http://www.w3.org/2000/svg"><path d="M10.758 3.063c.469-.352.89-.774 1.219-1.266a4.613 4.613 0 0 1-1.407.375c.516-.305.89-.774 1.078-1.36a5.197 5.197 0 0 1-1.546.61A2.461 2.461 0 0 0 8.297.648 2.46 2.46 0 0 0 5.836 3.11c0 .188.023.375.07.563A7.14 7.14 0 0 1 .82 1.094a2.4 2.4 0 0 0-.328 1.242 2.42 2.42 0 0 0 1.102 2.039C1.195 4.352.797 4.258.469 4.07v.024c0 1.195.844 2.18 1.969 2.414a2.747 2.747 0 0 1-.633.094c-.164 0-.305-.024-.47-.047a2.45 2.45 0 0 0 2.298 1.71A4.948 4.948 0 0 1 .586 9.32c-.211 0-.398-.023-.586-.047a6.857 6.857 0 0 0 3.773 1.102c4.524 0 6.985-3.727 6.985-6.984v-.329z" fill="#000"/></svg>